<svg id="Logo" xmlns="http://www.w3.org/2000/svg" viewBox="0 0 800 500"><defs><style>.cls-1{fill:#fff;}.cls-1,.cls-2,.cls-4,.cls-5,.cls-6{stroke:#66407d;stroke-miterlimit:10;}.cls-1,.cls-2{stroke-width:9.82px;}.cls-2,.cls-4,.cls-5,.cls-6{fill:none;}.cls-3{fill:#926baf;}.cls-4{stroke-width:9.83px;}.cls-5{stroke-width:10.09px;}.cls-6{stroke-width:9.77px;}</style></defs><title>Logo_web</title><ellipse class="cls-1" cx="750.51" cy="366.13" rx="20.36" ry="21.22"/><ellipse class="cls-1" cx="42.86" cy="45.47" rx="20.36" ry="20.97"/><polyline class="cls-2" points="63.22 45.47 153.46 45.47 153.46 369.18"/><path class="cls-3" d="M164.49,477.62l-16-48.34h8l8.51,26.9q.47,1.45,1.11,3.74t1.28,4.67q.64,2.38,1.18,4.49t.71,3.21h.3q.21-1.1.73-3.21t1.15-4.49q.64-2.38,1.28-4.67t1.11-3.74l8.51-26.9h8l-16,48.34Z"/><path class="cls-3" d="M258.53,416.21a5,5,0,0,1,1.3-3.83,4.61,4.61,0,0,1,3.23-1.19,5.44,5.44,0,0,1,1.77.29,3.77,3.77,0,0,1,1.45.9,4.39,4.39,0,0,1,1,1.56,6.35,6.35,0,0,1,.36,2.27,5,5,0,0,1-1.35,3.81,4.57,4.57,0,0,1-3.23,1.25,4.52,4.52,0,0,1-3.23-1.23A5,5,0,0,1,258.53,416.21Zm8.38,61.41h-7.78V429.28h7.78Z"/><path class="cls-3" d="M371.16,464.37a14.36,14.36,0,0,1-1.24,6.16,11.83,11.83,0,0,1-3.57,4.42,15.89,15.89,0,0,1-5.62,2.66,28.65,28.65,0,0,1-7.4.88,36,36,0,0,1-8-.77,20.36,20.36,0,0,1-5.86-2.27v-7.31q1.32.7,2.95,1.39a32.41,32.41,0,0,0,3.42,1.21,33.07,33.07,0,0,0,3.7.86,22,22,0,0,0,3.78.33,19.84,19.84,0,0,0,4.72-.48,8.9,8.9,0,0,0,3.16-1.39,5.32,5.32,0,0,0,1.77-2.2,7.26,7.26,0,0,0,.56-2.88,6.77,6.77,0,0,0-.43-2.47,6.18,6.18,0,0,0-1.56-2.18,15.54,15.54,0,0,0-3.1-2.18q-2-1.1-5-2.47T347.88,453a19.1,19.1,0,0,1-4.17-3,11.34,11.34,0,0,1-2.63-3.76,12.81,12.81,0,0,1-.92-5.08,12.3,12.3,0,0,1,1.18-5.48,11.18,11.18,0,0,1,3.31-4,15,15,0,0,1,5.13-2.47,24.75,24.75,0,0,1,6.67-.84,29.27,29.27,0,0,1,7.59.92,36.66,36.66,0,0,1,6.52,2.42l-2.69,6.47a52.07,52.07,0,0,0-5.71-2.22,19.26,19.26,0,0,0-6-.95q-4.36,0-6.46,1.47a4.83,4.83,0,0,0-2.09,4.2,6.75,6.75,0,0,0,.49,2.68,5.94,5.94,0,0,0,1.69,2.16,17.13,17.13,0,0,0,3.21,2q2,1,5,2.31t5.49,2.64a19.06,19.06,0,0,1,4.13,3,11.38,11.38,0,0,1,2.61,3.76A12.91,12.91,0,0,1,371.16,464.37Z"/><path class="cls-3" d="M474.26,477.62l-1.15-6.47h-.43a13.72,13.72,0,0,1-2.54,3.28,14.13,14.13,0,0,1-3.23,2.29,15.47,15.47,0,0,1-3.72,1.34,18.34,18.34,0,0,1-4,.44,21.09,21.09,0,0,1-6.84-1,11.63,11.63,0,0,1-4.92-3.17,14,14,0,0,1-3-5.5,27.89,27.89,0,0,1-1-8V429.28h7.78v31.13q0,5.72,2.27,8.58t7,2.86a13.21,13.21,0,0,0,5.81-1.15,9.23,9.23,0,0,0,3.78-3.37,15.33,15.33,0,0,0,2.05-5.48,40.35,40.35,0,0,0,.62-7.48V429.28h7.78v48.34Z"/><path class="cls-3" d="M583.17,477.62l-1.58-6.69h-.34a27.88,27.88,0,0,1-2.82,3.41,13.06,13.06,0,0,1-6.8,3.72,22.8,22.8,0,0,1-4.75.44,16.51,16.51,0,0,1-5.43-.86,11.36,11.36,0,0,1-4.3-2.64,12.28,12.28,0,0,1-2.84-4.49,18.06,18.06,0,0,1-1-6.41q0-7.22,4.94-11.09t15-4.23l7.87-.31v-3a16.76,16.76,0,0,0-.62-4.93,7.87,7.87,0,0,0-1.8-3.19,6.7,6.7,0,0,0-2.91-1.74,13.56,13.56,0,0,0-4-.53,20.09,20.09,0,0,0-6.61,1.06,41.47,41.47,0,0,0-5.88,2.55l-2.74-6a38.18,38.18,0,0,1,7.05-3,26.87,26.87,0,0,1,8.17-1.23,27.9,27.9,0,0,1,7.55.9,12.44,12.44,0,0,1,5.26,2.86,12,12,0,0,1,3.1,5,23.11,23.11,0,0,1,1,7.35v33.11ZM568.89,472a13.61,13.61,0,0,0,4.83-.84,10.28,10.28,0,0,0,3.85-2.53,11.8,11.8,0,0,0,2.54-4.27,18,18,0,0,0,.92-6.05V454l-6.11.31a30.56,30.56,0,0,0-6.46.88,11.28,11.28,0,0,0-4.17,2,7.12,7.12,0,0,0-2.24,3,11.18,11.18,0,0,0-.68,4q0,4.05,2.07,5.94A7.77,7.77,0,0,0,568.89,472Z"/><path class="cls-3" d="M672.25,477.62h-7.78v-68.5h7.78Z"/><path class="cls-3" d="M776.5,464.37a14.36,14.36,0,0,1-1.24,6.16,11.83,11.83,0,0,1-3.57,4.42,15.89,15.89,0,0,1-5.62,2.66,28.65,28.65,0,0,1-7.4.88,36,36,0,0,1-8-.77,20.36,20.36,0,0,1-5.86-2.27v-7.31q1.32.7,2.95,1.39a32.41,32.41,0,0,0,3.42,1.21,33.07,33.07,0,0,0,3.7.86,22,22,0,0,0,3.78.33,19.84,19.84,0,0,0,4.72-.48,8.9,8.9,0,0,0,3.16-1.39,5.32,5.32,0,0,0,1.77-2.2,7.26,7.26,0,0,0,.56-2.88,6.77,6.77,0,0,0-.43-2.47,6.18,6.18,0,0,0-1.56-2.18,15.54,15.54,0,0,0-3.1-2.18q-2-1.1-5-2.47T753.22,453a19.1,19.1,0,0,1-4.17-3,11.34,11.34,0,0,1-2.63-3.76,12.81,12.81,0,0,1-.92-5.08,12.3,12.3,0,0,1,1.18-5.48,11.18,11.18,0,0,1,3.31-4,15,15,0,0,1,5.13-2.47,24.75,24.75,0,0,1,6.67-.84,29.27,29.27,0,0,1,7.59.92,36.66,36.66,0,0,1,6.52,2.42l-2.69,6.47A52.07,52.07,0,0,0,767.5,436a19.26,19.26,0,0,0-6-.95q-4.36,0-6.46,1.47a4.83,4.83,0,0,0-2.09,4.2,6.75,6.75,0,0,0,.49,2.68,5.94,5.94,0,0,0,1.69,2.16,17.13,17.13,0,0,0,3.21,2q2,1,5,2.31t5.49,2.64a19.06,19.06,0,0,1,4.13,3,11.38,11.38,0,0,1,2.61,3.76A12.91,12.91,0,0,1,776.5,464.37Z"/><polyline class="cls-4" points="155.88 208.94 155.11 209.76 285.69 366 375.75 366 510.83 366 510.83 55.02 573.87 148.62 639.91 56.55 639.91 367.53 729.97 367.53"/><line class="cls-5" x1="366.74" y1="369.05" x2="366.74" y2="39.78"/><line class="cls-6" x1="153.6" y1="212.04" x2="288.69" y2="41.3"/><ellipse class="cls-1" cx="511.31" cy="258.08" rx="20.29" ry="21.22"/></svg>